<svg xmlns="http://www.w3.org/2000/svg" xmlns:xlink="http://www.w3.org/1999/xlink" viewBox="0 0 460.36 452.77"><defs><style>.cls-1{fill:url(#radial-gradient);}.cls-2{fill:url(#New_Gradient_Swatch_1);}.cls-3,.cls-4,.cls-6{fill:#664f3d;}.cls-4,.cls-6{stroke:#33271f;stroke-miterlimit:10;}.cls-4{stroke-width:2.5px;}.cls-5{fill:url(#linear-gradient);}.cls-6{stroke-width:2px;}</style><radialGradient id="radial-gradient" cx="231.14" cy="229.03" r="244.06" gradientTransform="translate(1.1 88.09) scale(1 0.6)" gradientUnits="userSpaceOnUse"><stop offset="0" stop-color="#fff6d9"/><stop offset="0.38" stop-color="#fef5d6"/><stop offset="0.6" stop-color="#fbf0ce"/><stop offset="0.79" stop-color="#f5e8c0"/><stop offset="0.95" stop-color="#eddcac"/><stop offset="1" stop-color="#ead8a4"/></radialGradient><linearGradient id="New_Gradient_Swatch_1" x1="10.08" y1="226.51" x2="80.7" y2="226.51" gradientUnits="userSpaceOnUse"><stop offset="0" stop-color="#ead8a4"/><stop offset="1" stop-color="#fff6d9"/></linearGradient><linearGradient id="linear-gradient" x1="379.66" y1="226.51" x2="450.28" y2="226.51" gradientUnits="userSpaceOnUse"><stop offset="0" stop-color="#fff6d9"/><stop offset="1" stop-color="#ead8a4"/></linearGradient></defs><title>scroll-discord</title><g id="scroll"><polygon id="center-torn_less" data-name="center-torn less" class="cls-1" points="152.47 76.44 150.04 94.89 139.24 76.44 113.27 76.44 103.56 136.51 94.83 76.44 80.7 76.44 80.7 376.58 304.23 376.58 309.1 376.58 311.81 376.58 323.17 376.58 332.5 338.22 341.41 376.58 383.79 376.58 383.79 76.44 152.47 76.44"/><g id="left"><rect id="left-2" data-name="left" class="cls-2" x="10.08" y="76.44" width="70.62" height="300.14"/><g id="left_top" data-name="left top"><path class="cls-3" d="M79.6,79H9A8.83,8.83,0,0,1,.15,70.13h0A8.82,8.82,0,0,1,9,61.31H79.6a8.82,8.82,0,0,1,8.82,8.82h0A8.82,8.82,0,0,1,79.6,79Z" transform="translate(1.1 -2.52)"/><circle class="cls-3" cx="45.39" cy="32.43" r="31.18"/></g><g id="left_bottom" data-name="left bottom"><path class="cls-3" d="M9,379.1H79.6a8.82,8.82,0,0,1,8.82,8.83h0a8.83,8.83,0,0,1-8.82,8.83H9a8.83,8.83,0,0,1-8.83-8.83h0A8.83,8.83,0,0,1,9,379.1Z" transform="translate(1.1 -2.52)"/><circle class="cls-3" cx="45.39" cy="420.34" r="31.18"/></g><g id="left_top-2" data-name="left top"><circle class="cls-4" cx="45.39" cy="32.43" r="31.18"/><path class="cls-4" d="M79.6,79H9A8.83,8.83,0,0,1,.15,70.13h0A8.82,8.82,0,0,1,9,61.31H79.6a8.82,8.82,0,0,1,8.82,8.82h0A8.82,8.82,0,0,1,79.6,79Z" transform="translate(1.1 -2.52)"/></g><g id="left_bottom-2" data-name="left bottom"><circle class="cls-4" cx="45.39" cy="420.34" r="31.18"/><path class="cls-4" d="M9,379.1H79.6a8.82,8.82,0,0,1,8.82,8.83h0a8.83,8.83,0,0,1-8.82,8.83H9a8.83,8.83,0,0,1-8.83-8.83h0A8.83,8.83,0,0,1,9,379.1Z" transform="translate(1.1 -2.52)"/></g></g><g id="right"><rect id="right-2" data-name="right" class="cls-5" x="379.66" y="76.44" width="70.62" height="300.14"/><g id="right_top" data-name="right top"><path class="cls-3" d="M449.18,79H378.56a8.83,8.83,0,0,1-8.83-8.83h0a8.83,8.83,0,0,1,8.83-8.82h70.62A8.82,8.82,0,0,1,458,70.13h0A8.83,8.83,0,0,1,449.18,79Z" transform="translate(1.1 -2.52)"/><circle class="cls-3" cx="414.97" cy="32.43" r="31.18"/></g><g id="right_bottom" data-name="right bottom"><path class="cls-3" d="M378.56,379.1h70.62a8.83,8.83,0,0,1,8.83,8.83h0a8.83,8.83,0,0,1-8.83,8.83H378.56a8.84,8.84,0,0,1-8.83-8.83h0A8.83,8.83,0,0,1,378.56,379.1Z" transform="translate(1.1 -2.52)"/><circle class="cls-3" cx="414.97" cy="420.34" r="31.18"/></g><g id="right_top-2" data-name="right top"><circle class="cls-4" cx="414.97" cy="32.43" r="31.18"/><path class="cls-4" d="M449.18,79H378.56a8.83,8.83,0,0,1-8.83-8.83h0a8.83,8.83,0,0,1,8.83-8.82h70.62A8.82,8.82,0,0,1,458,70.13h0A8.83,8.83,0,0,1,449.18,79Z" transform="translate(1.1 -2.52)"/></g><g id="right_bottom-2" data-name="right bottom"><circle class="cls-4" cx="414.97" cy="420.34" r="31.18"/><path class="cls-4" d="M378.56,379.1h70.62a8.83,8.83,0,0,1,8.83,8.83h0a8.83,8.83,0,0,1-8.83,8.83H378.56a8.84,8.84,0,0,1-8.83-8.83h0A8.83,8.83,0,0,1,378.56,379.1Z" transform="translate(1.1 -2.52)"/></g></g></g><g id="Discord"><path class="cls-6" d="M324.69,163.85c-28.49-20.83-55.12-21.77-60.15-21.79l-3.21,3.17c36.39,10.37,54,26.57,54,26.57-94.89-46.7-173.2-1.52-175-1.14,0,0,17.59-17.32,56.37-26.57l-2.37-2.34s-29.37-1.1-61.07,22h0s-31.69,54.36-31.69,121.38c0,0,17.57,30.09,65.74,31.23,0,0,7-9.22,14.14-17.33-27.06-8.09-37.59-24.27-37.59-24.27a58.25,58.25,0,0,1,5.88,3.46h1a1.37,1.37,0,0,1,1.05.51v.11a1.36,1.36,0,0,0,1.06.52c57.52,23.34,105.61,28.73,160.47-5.81,0,0-10.55,16.18-38.73,24.27,5.81,8.06,14,17.29,14,17.29,48.19-1,66.91-31.12,68-29.84C356.58,218.32,324.69,163.85,324.69,163.85ZM188.48,264.33c-12.29,0-22.3-10.38-22.3-23.07s10-23.13,22.3-23.13l.07-.06c12.29,0,22.24,10.38,22.24,23.09S200.77,264.33,188.48,264.33Zm79.85,0C256,264.33,246,254,246,241.26s10.07-23.13,22.31-23.13v-.06c12.34,0,22.3,10.38,22.3,23.09S280.62,264.33,268.33,264.33Z" transform="translate(1.1 -2.52)"/></g></svg>