<svg xmlns="http://www.w3.org/2000/svg" xmlns:xlink="http://www.w3.org/1999/xlink" viewBox="0 0 460.36 452.77"><defs><style>.cls-1{fill:url(#radial-gradient);}.cls-2{fill:url(#New_Gradient_Swatch_1);}.cls-3,.cls-4,.cls-6{fill:#664f3d;}.cls-4,.cls-6{stroke:#33271f;stroke-miterlimit:10;}.cls-4{stroke-width:2.5px;}.cls-5{fill:url(#linear-gradient);}.cls-6{stroke-width:2px;}</style><radialGradient id="radial-gradient" cx="230.78" cy="229.39" r="244.06" gradientTransform="translate(1.1 88.24) scale(1 0.6)" gradientUnits="userSpaceOnUse"><stop offset="0" stop-color="#fff6d9"/><stop offset="0.38" stop-color="#fef5d6"/><stop offset="0.6" stop-color="#fbf0ce"/><stop offset="0.79" stop-color="#f5e8c0"/><stop offset="0.95" stop-color="#eddcac"/><stop offset="1" stop-color="#ead8a4"/></radialGradient><linearGradient id="New_Gradient_Swatch_1" x1="10.08" y1="226.51" x2="80.7" y2="226.51" gradientUnits="userSpaceOnUse"><stop offset="0" stop-color="#ead8a4"/><stop offset="1" stop-color="#fff6d9"/></linearGradient><linearGradient id="linear-gradient" x1="379.66" y1="226.51" x2="450.28" y2="226.51" gradientUnits="userSpaceOnUse"><stop offset="0" stop-color="#fff6d9"/><stop offset="1" stop-color="#ead8a4"/></linearGradient></defs><title>scroll-about</title><g id="scroll"><polygon id="center-torn_less" data-name="center-torn less" class="cls-1" points="152.11 76.8 149.68 95.25 138.88 76.8 112.91 76.8 103.2 136.87 94.47 76.8 80.34 76.8 80.34 376.94 303.87 376.94 308.74 376.94 311.45 376.94 322.81 376.94 332.15 338.58 341.05 376.94 383.43 376.94 383.43 76.8 152.11 76.8"/><g id="left"><rect id="left-2" data-name="left" class="cls-2" x="10.08" y="76.44" width="70.62" height="300.14"/><g id="left_top" data-name="left top"><path class="cls-3" d="M79.6,79H9A8.83,8.83,0,0,1,.15,70.13h0A8.82,8.82,0,0,1,9,61.31H79.6a8.82,8.82,0,0,1,8.82,8.82h0A8.82,8.82,0,0,1,79.6,79Z" transform="translate(1.1 -2.52)"/><circle class="cls-3" cx="45.39" cy="32.43" r="31.18"/></g><g id="left_bottom" data-name="left bottom"><path class="cls-3" d="M9,379.1H79.6a8.82,8.82,0,0,1,8.82,8.83h0a8.83,8.83,0,0,1-8.82,8.83H9a8.83,8.83,0,0,1-8.83-8.83h0A8.83,8.83,0,0,1,9,379.1Z" transform="translate(1.1 -2.52)"/><circle class="cls-3" cx="45.39" cy="420.34" r="31.18"/></g><g id="left_top-2" data-name="left top"><circle class="cls-4" cx="45.39" cy="32.43" r="31.18"/><path class="cls-4" d="M79.6,79H9A8.83,8.83,0,0,1,.15,70.13h0A8.82,8.82,0,0,1,9,61.31H79.6a8.82,8.82,0,0,1,8.82,8.82h0A8.82,8.82,0,0,1,79.6,79Z" transform="translate(1.1 -2.52)"/></g><g id="left_bottom-2" data-name="left bottom"><circle class="cls-4" cx="45.39" cy="420.34" r="31.18"/><path class="cls-4" d="M9,379.1H79.6a8.82,8.82,0,0,1,8.82,8.83h0a8.83,8.83,0,0,1-8.82,8.83H9a8.83,8.83,0,0,1-8.83-8.83h0A8.83,8.83,0,0,1,9,379.1Z" transform="translate(1.1 -2.52)"/></g></g><g id="right"><rect id="right-2" data-name="right" class="cls-5" x="379.66" y="76.44" width="70.62" height="300.14"/><g id="right_top" data-name="right top"><path class="cls-3" d="M449.18,79H378.56a8.83,8.83,0,0,1-8.83-8.83h0a8.83,8.83,0,0,1,8.83-8.82h70.62A8.82,8.82,0,0,1,458,70.13h0A8.83,8.83,0,0,1,449.18,79Z" transform="translate(1.1 -2.52)"/><circle class="cls-3" cx="414.97" cy="32.43" r="31.18"/></g><g id="right_bottom" data-name="right bottom"><path class="cls-3" d="M378.56,379.1h70.62a8.83,8.83,0,0,1,8.83,8.83h0a8.83,8.83,0,0,1-8.83,8.83H378.56a8.84,8.84,0,0,1-8.83-8.83h0A8.83,8.83,0,0,1,378.56,379.1Z" transform="translate(1.1 -2.52)"/><circle class="cls-3" cx="414.97" cy="420.34" r="31.18"/></g><g id="right_top-2" data-name="right top"><circle class="cls-4" cx="414.97" cy="32.43" r="31.18"/><path class="cls-4" d="M449.18,79H378.56a8.83,8.83,0,0,1-8.83-8.83h0a8.83,8.83,0,0,1,8.83-8.82h70.62A8.82,8.82,0,0,1,458,70.13h0A8.83,8.83,0,0,1,449.18,79Z" transform="translate(1.1 -2.52)"/></g><g id="right_bottom-2" data-name="right bottom"><circle class="cls-4" cx="414.97" cy="420.34" r="31.18"/><path class="cls-4" d="M378.56,379.1h70.62a8.83,8.83,0,0,1,8.83,8.83h0a8.83,8.83,0,0,1-8.83,8.83H378.56a8.84,8.84,0,0,1-8.83-8.83h0A8.83,8.83,0,0,1,378.56,379.1Z" transform="translate(1.1 -2.52)"/></g></g></g><g id="about"><path class="cls-6" d="M232.26,367.53,198.2,334.34l34.06-34.93,33.63,34.93Z" transform="translate(1.1 -2.52)"/><path class="cls-6" d="M209.17,281.38a6.8,6.8,0,0,1-2.13-5c0-5,.12-8.73.36-11.34A62.15,62.15,0,0,1,218,235.68q8.85-12.75,24.44-28.33,12-12,17.88-19.84a31.29,31.29,0,0,0,6.56-16.29q1.41-14.52-9.39-23t-26-8.5q-34.37,0-41.45,34.36-2.47,8.14-10.27,8.15H149a7.62,7.62,0,0,1-5.84-2.48,9,9,0,0,1-2.3-6.38,70,70,0,0,1,11.86-36.48q11.16-17,32.06-27.46T234,99q29.39,0,48.35,9.39T310,132.25a58,58,0,0,1,8.67,30.11q0,17.71-8,30.82T287.1,223.29A207.6,207.6,0,0,0,269.56,244a49.79,49.79,0,0,0-8.32,18.6q-1.42,8.85-1.77,12a19.38,19.38,0,0,1-3.9,6.73,8.11,8.11,0,0,1-6,2.12H214.48A7.2,7.2,0,0,1,209.17,281.38Z" transform="translate(1.1 -2.52)"/></g></svg>